<svg width="26" height="26" viewBox="0 0 26 26" fill="none" xmlns="http://www.w3.org/2000/svg">
<g clip-path="url(#clip0_36_916)">
<path d="M12.375 13.5C14.0989 13.5 15.7522 12.8152 16.9712 11.5962C18.1902 10.3772 18.875 8.72391 18.875 7C18.875 5.27609 18.1902 3.62279 16.9712 2.40381C15.7522 1.18482 14.0989 0.5 12.375 0.5C10.6511 0.5 8.99779 1.18482 7.77881 2.40381C6.55982 3.62279 5.875 5.27609 5.875 7C5.875 8.72391 6.55982 10.3772 7.77881 11.5962C8.99779 12.8152 10.6511 13.5 12.375 13.5ZM10.0543 15.9375C5.05234 15.9375 1 19.9898 1 24.9918C1 25.8246 1.67539 26.5 2.5082 26.5H22.2418C23.0746 26.5 23.75 25.8246 23.75 24.9918C23.75 19.9898 19.6977 15.9375 14.6957 15.9375H10.0543Z" fill="#6B7280"/>
</g>
<defs>
<clipPath id="clip0_36_916">
<rect width="26" height="26" fill="white"/>
</clipPath>
</defs>
</svg>
