<svg width="32" height="32" viewBox="0 0 32 32" fill="none" xmlns="http://www.w3.org/2000/svg">
<path d="M32 32H0V0H32V32Z" stroke="#E5E7EB"/>
<path d="M9.79297 15.2937C9.40234 15.6843 9.40234 16.3187 9.79297 16.7093L14.793 21.7093C15.1836 22.0999 15.818 22.0999 16.2086 21.7093C16.5992 21.3187 16.5992 20.6843 16.2086 20.2937L12.9117 16.9999H22.4992C23.0523 16.9999 23.4992 16.553 23.4992 15.9999C23.4992 15.4468 23.0523 14.9999 22.4992 14.9999H12.9148L16.2055 11.7062C16.5961 11.3155 16.5961 10.6812 16.2055 10.2905C15.8148 9.8999 15.1805 9.8999 14.7898 10.2905L9.78984 15.2905L9.79297 15.2937Z" fill="#374151"/>
</svg>
