<svg width="21" height="27" viewBox="0 0 21 27" fill="none" xmlns="http://www.w3.org/2000/svg">
<g clip-path="url(#clip0_36_908)">
<path d="M10.125 0C7.9207 0 6.04336 1.40801 5.35254 3.375H3.375C1.51348 3.375 0 4.88848 0 6.75V23.625C0 25.4865 1.51348 27 3.375 27H16.875C18.7365 27 20.25 25.4865 20.25 23.625V6.75C20.25 4.88848 18.7365 3.375 16.875 3.375H14.8975C14.2066 1.40801 12.3293 0 10.125 0ZM10.125 3.375C10.5726 3.375 11.0018 3.55279 11.3182 3.86926C11.6347 4.18572 11.8125 4.61495 11.8125 5.0625C11.8125 5.51005 11.6347 5.93928 11.3182 6.25574C11.0018 6.57221 10.5726 6.75 10.125 6.75C9.67745 6.75 9.24823 6.57221 8.93176 6.25574C8.61529 5.93928 8.4375 5.51005 8.4375 5.0625C8.4375 4.61495 8.61529 4.18572 8.93176 3.86926C9.24823 3.55279 9.67745 3.375 10.125 3.375ZM3.79688 14.3438C3.79688 14.0081 3.93022 13.6862 4.16757 13.4488C4.40492 13.2115 4.72684 13.0781 5.0625 13.0781C5.39816 13.0781 5.72008 13.2115 5.95743 13.4488C6.19478 13.6862 6.32812 14.0081 6.32812 14.3438C6.32812 14.6794 6.19478 15.0013 5.95743 15.2387C5.72008 15.476 5.39816 15.6094 5.0625 15.6094C4.72684 15.6094 4.40492 15.476 4.16757 15.2387C3.93022 15.0013 3.79688 14.6794 3.79688 14.3438ZM9.28125 13.5H16.0312C16.4953 13.5 16.875 13.8797 16.875 14.3438C16.875 14.8078 16.4953 15.1875 16.0312 15.1875H9.28125C8.81719 15.1875 8.4375 14.8078 8.4375 14.3438C8.4375 13.8797 8.81719 13.5 9.28125 13.5ZM3.79688 19.4062C3.79688 19.0706 3.93022 18.7487 4.16757 18.5113C4.40492 18.274 4.72684 18.1406 5.0625 18.1406C5.39816 18.1406 5.72008 18.274 5.95743 18.5113C6.19478 18.7487 6.32812 19.0706 6.32812 19.4062C6.32812 19.7419 6.19478 20.0638 5.95743 20.3012C5.72008 20.5385 5.39816 20.6719 5.0625 20.6719C4.72684 20.6719 4.40492 20.5385 4.16757 20.3012C3.93022 20.0638 3.79688 19.7419 3.79688 19.4062ZM8.4375 19.4062C8.4375 18.9422 8.81719 18.5625 9.28125 18.5625H16.0312C16.4953 18.5625 16.875 18.9422 16.875 19.4062C16.875 19.8703 16.4953 20.25 16.0312 20.25H9.28125C8.81719 20.25 8.4375 19.8703 8.4375 19.4062Z" fill="#6B7280"/>
</g>
<defs>
<clipPath id="clip0_36_908">
<rect width="21" height="27" fill="white"/>
</clipPath>
</defs>
</svg>
