<svg width="26" height="26" viewBox="0 0 26 26" fill="none" xmlns="http://www.w3.org/2000/svg">
<path d="M4.51562 4.01562L2.92188 2.42188C2.21406 1.71406 1 2.21563 1 3.21406V8.375C1 8.99844 1.50156 9.5 2.125 9.5H7.28594C8.28906 9.5 8.79063 8.28594 8.08281 7.57812L6.63906 6.13437C8.26562 4.50781 10.5156 3.5 13 3.5C17.9688 3.5 22 7.53125 22 12.5C22 17.4688 17.9688 21.5 13 21.5C11.0875 21.5 9.31563 20.9047 7.85781 19.8875C7.17813 19.4141 6.24531 19.5781 5.76719 20.2578C5.28906 20.9375 5.45781 21.8703 6.1375 22.3484C8.0875 23.7031 10.4547 24.5 13 24.5C19.6281 24.5 25 19.1281 25 12.5C25 5.87188 19.6281 0.5 13 0.5C9.68594 0.5 6.68594 1.84531 4.51562 4.01562ZM13 6.5C12.3766 6.5 11.875 7.00156 11.875 7.625V12.5C11.875 12.8 11.9922 13.0859 12.2031 13.2969L15.5781 16.6719C16.0188 17.1125 16.7312 17.1125 17.1672 16.6719C17.6031 16.2312 17.6078 15.5188 17.1672 15.0828L14.1203 12.0359V7.625C14.1203 7.00156 13.6187 6.5 12.9953 6.5H13Z" fill="#6B7280"/>
</svg>
