<svg width="31" height="27" viewBox="0 0 31 27" fill="none" xmlns="http://www.w3.org/2000/svg">
<path d="M30.375 27H0V0H30.375V27Z" stroke="#E5E7EB"/>
<path d="M28.9927 13.9756C28.9927 14.8507 28.2634 15.5362 27.437 15.5362H25.8813L25.9153 23.3244C25.9153 23.4556 25.9056 23.5869 25.891 23.7181V24.5008C25.891 25.5752 25.0208 26.4454 23.9464 26.4454H23.1686C23.1151 26.4454 23.0616 26.4454 23.0081 26.4406C22.9401 26.4454 22.872 26.4454 22.8039 26.4454H21.2239H20.0572C18.9828 26.4454 18.1126 25.5752 18.1126 24.5008V23.3341V20.2227C18.1126 19.3622 17.4174 18.667 16.5569 18.667H13.4455C12.585 18.667 11.8898 19.3622 11.8898 20.2227V23.3341V24.5008C11.8898 25.5752 11.0196 26.4454 9.94521 26.4454H8.77844H7.22761C7.15469 26.4454 7.08177 26.4406 7.00884 26.4357C6.95051 26.4406 6.89217 26.4454 6.83383 26.4454H6.05599C4.98159 26.4454 4.11138 25.5752 4.11138 24.5008V19.0559C4.11138 19.0122 4.11138 18.9636 4.11624 18.9198V15.5362H2.55569C1.68061 15.5362 1 14.8556 1 13.9756C1 13.5381 1.14585 13.1492 1.48615 12.8089L13.9511 1.94337C14.2914 1.60306 14.6803 1.55444 15.0206 1.55444C15.3609 1.55444 15.7499 1.65167 16.0416 1.89475L28.4579 12.8089C28.8468 13.1492 29.0413 13.5381 28.9927 13.9756Z" fill="#6B7280"/>
</svg>
