<svg width="32" height="32" viewBox="0 0 32 32" fill="none" xmlns="http://www.w3.org/2000/svg">
<path d="M32 32H0V0H32V32Z" stroke="#E5E7EB"/>
<path d="M16 19.25C15.5359 19.25 15.0908 19.4344 14.7626 19.7626C14.4344 20.0908 14.25 20.5359 14.25 21C14.25 21.4641 14.4344 21.9092 14.7626 22.2374C15.0908 22.5656 15.5359 22.75 16 22.75C16.4641 22.75 16.9092 22.5656 17.2374 22.2374C17.5656 21.9092 17.75 21.4641 17.75 21C17.75 20.5359 17.5656 20.0908 17.2374 19.7626C16.9092 19.4344 16.4641 19.25 16 19.25ZM16 14.25C15.5359 14.25 15.0908 14.4344 14.7626 14.7626C14.4344 15.0908 14.25 15.5359 14.25 16C14.25 16.4641 14.4344 16.9092 14.7626 17.2374C15.0908 17.5656 15.5359 17.75 16 17.75C16.4641 17.75 16.9092 17.5656 17.2374 17.2374C17.5656 16.9092 17.75 16.4641 17.75 16C17.75 15.5359 17.5656 15.0908 17.2374 14.7626C16.9092 14.4344 16.4641 14.25 16 14.25ZM17.75 11C17.75 10.5359 17.5656 10.0908 17.2374 9.76256C16.9092 9.43437 16.4641 9.25 16 9.25C15.5359 9.25 15.0908 9.43437 14.7626 9.76256C14.4344 10.0908 14.25 10.5359 14.25 11C14.25 11.4641 14.4344 11.9092 14.7626 12.2374C15.0908 12.5656 15.5359 12.75 16 12.75C16.4641 12.75 16.9092 12.5656 17.2374 12.2374C17.5656 11.9092 17.75 11.4641 17.75 11Z" fill="#374151"/>
</svg>
